<svg xmlns="http://www.w3.org/2000/svg" viewBox="0 0 512 512" role="img" aria-label="Promptup logo">
  <defs>
    <linearGradient id="promptup-arrow" x1="104" y1="388" x2="364" y2="164" gradientUnits="userSpaceOnUse">
      <stop offset="0%" stop-color="#10B9FF"/>
      <stop offset="55%" stop-color="#15D4DA"/>
      <stop offset="100%" stop-color="#1EE7B7"/>
    </linearGradient>
    <linearGradient id="promptup-lines" x1="232" y1="140" x2="418" y2="320" gradientUnits="userSpaceOnUse">
      <stop offset="0%" stop-color="#1DD4E3"/>
      <stop offset="100%" stop-color="#21E3B0"/>
    </linearGradient>
    <filter id="shadow" x="-20%" y="-20%" width="140%" height="140%">
      <feDropShadow dx="0" dy="18" stdDeviation="18" flood-color="#05163B" flood-opacity="0.32"/>
    </filter>
  </defs>

  <rect x="54" y="54" width="404" height="404" rx="78" fill="#142A59" filter="url(#shadow)"/>

  <g fill="none" stroke="#FFFFFF" stroke-linecap="round" stroke-linejoin="round">
    <path d="M163 291c-36 0-65-29-65-65s29-65 65-65c7 0 14 1 21 3 19-32 54-51 92-51 52 0 95 35 107 83 32 5 57 33 57 67 0 38-31 69-69 69H163" stroke-width="18"/>
  </g>

  <g stroke="url(#promptup-lines)" stroke-linecap="round" stroke-width="12" opacity="0.98">
    <path d="M215 166h67"/>
    <path d="M215 202h42"/>
    <path d="M319 192h48"/>
    <path d="M339 228h63"/>
    <path d="M211 279h74"/>
    <path d="M315 279h74"/>
    <path d="M215 315h52"/>
    <path d="M303 315h88"/>
  </g>

  <path d="M148 349l92-92h-42c-10 0-16-12-10-20l18-25c2-3 6-5 10-5h96c12 0 18 15 9 23l-127 121c-8 8-20 2-20-9v-50l-28 29z" fill="url(#promptup-arrow)"/>
</svg>
